name new_emg_signals
nRows=68
nColumns=7
 
endheader
time	RGLTMED	RRF	RADDLONG	RBF	RTA	RGM
3.44999999999993	0.8143439463915539	0.5875054849123673	0.7359784954246961	0.8770075778329444	0.9127999848751664	0.6461850217527716
3.4599999999999245	0.8128790867654362	0.585488226642293	0.7355079556311099	0.8874630237309724	0.9147104870312968	0.6418148377248699
3.469999999999919	0.8115351843119717	0.583476767163601	0.7350908494617389	0.8975272271859608	0.9164016562823591	0.6374219052063939
3.479999999999924	0.8103128246072833	0.5814713166841331	0.7347267554183907	0.907186910737767	0.9178656486917872	0.6330025910947927
3.4899999999999256	0.8092123328282724	0.5794721431089717	0.734415224063435	0.916429215120004	0.9190948332767792	0.6285533751332536
3.4999999999999236	0.8082337740145781	0.5774795757029845	0.7341557780967662	0.9252417288290724	0.9200818161297444	0.6240708641849353
3.5099999999999216	0.8073769539316784	0.5754940084873988	0.7339479124238681	0.9336125173617388	0.9208194643593828	0.6195518058597381
3.519999999999923	0.8066414205377914	0.5735159033601529	0.7337910942177355	0.9415301520326866	0.9213009297876704	0.614993101479171
3.5299999999999248	0.8060264660541155	0.5715457929313452	0.7336847629760908	0.9489837382801596	0.9215196723369592	0.6103918183707725
3.539999999999919	0.8055311296358776	0.5695842830672411	0.7336283305739978	0.9559629433644754	0.921469483039946	0.6057452014871018
3.5499999999999208	0.8051542006386555	0.5676320551392912	0.7336211813106817	0.9624580233609212	0.9211445066045236	0.6010506843461397
3.5599999999999223	0.8048942224726744	0.565689867978407	0.7336626719476852	0.9684598493453258	0.9205392634655974	0.5963058992906373
3.569999999999924	0.8047494970365835	0.5637585595381756	0.7337521317341485	0.9739599326675824	0.9196486712568624	0.5915086870636016
3.579999999999922	0.8047180897210389	0.5618390482724179	0.7338888624133774	0.9789504492056402	0.9184680656373244	0.5866571056960342
3.58999999999992	0.8047978349721668	0.5599323342328086	0.7340721382033651	0.983424262490152	0.9169932204098636	0.5817494387013752
3.5999999999999215	0.804986342403608	0.5580394998915805	0.7343012057431009	0.9873749455883598	0.9152203668719242	0.5767842025693143
3.6099999999999195	0.8052810034448985	0.556161710693125	0.7345752839954823	0.9907968016353524	0.9131462123405468	0.5717601535499461
3.619999999999921	0.8056789985125017	0.5543002153370362	0.7348935640976184	0.9936848829024802	0.910767957794952	0.566676293717788
3.629999999999919	0.8061773046881914	0.5524563457942664	0.7352552091484752	0.9960350082987726	0.9080833145800328	0.561531876304043
3.6399999999999206	0.8067727038877381	0.5506315170576066	0.7356593539236848	0.997843779214084	0.9050905201138504	0.5563264102845019
3.649999999999922	0.8074617915003761	0.5488272266276955	0.7361051045085512	0.9991085936311296	0.9017883525414676	0.5510596642094864
3.65999999999992	0.808240985477827	0.5470450537361369	0.7365915378427328	0.9998276584521744	0.8981761442760977	0.5457316692610571
3.6699999999999218	0.8091065358493348	0.5452866583075069	0.7371177011739892	1.0	0.8942537943670047	0.5403427215212814
3.67999999999992	0.8100545346373905	0.5435537796624382	0.7376826114216376	0.9996254726610468	0.8900217796325818	0.5348933834338085
3.6899999999999213	0.8110809261461195	0.5418482349638558	0.7382852544525181	0.9987047656433204	0.8854811644968563	0.5293844844398176
3.6999999999999194	0.8121815175918912	0.5401719174088914	0.7389245842738291	0.9972394078247596	0.8806336094680373	0.5238171207695189
3.709999999999921	0.8133519900430288	0.5385267941696988	0.7395995221483799	0.9952317706700684	0.8754813781987018	0.51819265437292
3.719999999999919	0.8145879096325339	0.5369149040877659	0.7403089556392225	0.9926850691956548	0.8700273430700969	0.5125127109786274
3.7299999999999205	0.815884739005897	0.535338355127504	0.74105173759277	0.9896033609636464	0.8642749892492823	0.5067791772770242
3.739999999999922	0.817237848964124	0.5337993215960757	0.7418266850715532	0.9859915430874692	0.8582284171770296	0.500994197233724
3.74999999999992	0.8186425302610828	0.5323000411368284	0.7426325782500056	0.9818553472335458	0.8518923434540411	0.4951601675500953
3.7599999999999216	0.82009400551299	0.5308428115030804	0.7434681592883171	0.9772013326058628	0.8452721001012575	0.4892797322981395
3.7699999999999196	0.821587441177475	0.5294299871183985	0.7443321312005018	0.9720368769022908	0.8383736321769883	0.4833557767653771
3.779999999999921	0.8231179595586408	0.5280639754285942	0.745223156732846	0.9663701652353928	0.8312034937402687	0.4773914205511086
3.7899999999999157	0.8246806507948423	0.5267472330504425	0.7461398572690873	0.9602101770197352	0.823768842156559	0.4713900099587979
3.7999999999999208	0.8262705847848509	0.5254822617216472	0.7470808117785436	0.9535666708453348	0.8160774307484883	0.4653551097312343
3.8099999999999223	0.8278828230076692	0.5242716040560803	0.7480445558232597	0.9464501673810884	0.8081375998009079	0.4592904941758592
3.8199999999999203	0.8295124301894923	0.5231178391076863	0.7490295806399324	0.938871930376662	0.7999582659366359	0.4532001377275305
3.8299999999999184	0.8311544857706049	0.5220235777461424	0.750034332311728	0.9308439458502196	0.7915489098875177	0.4470882049951472
3.83999999999992	0.8328040951237731	0.5209914578477023	0.7510572110445344	0.9223788995609734	0.7829195626949188	0.4409590403375099
3.849999999999918	0.8344564004747901	0.5200241393053054	0.7520965705621104	0.9134901528720252	0.7740807903842218	0.434817157012554
3.859999999999916	0.8361065914751566	0.5191242988635182	0.7531507176344114	0.9041917171127322	0.7650436771685675	0.4286672259430288
3.8699999999999175	0.8377499153772086	0.5182946247861407	0.7542179117532333	0.8944982265515756	0.7558198072464849	0.4225140641406563
3.8799999999999155	0.8393816867640244	0.5175378113663068	0.7552963649684099	0.884424910090488	0.7464212452646469	0.4163626228297703
3.889999999999917	0.8409972967933289	0.5168565532906109	0.7563842418968798	0.8739875617904718	0.7368605155205472	0.4102179753103317
3.899999999999915	0.8425922219258261	0.5162535398693051	0.7574796599151938	0.8632025103367665	0.7271505799816318	0.4040853045990215
3.909999999999913	0.8441620321218417	0.5157314491447916	0.758580689544629	0.852086587549917	0.7173048151984802	0.3979698908860178
3.919999999999918	0.8457023985001162	0.5152929418905233	0.7596853550361289	0.8406570960467427	0.7073369881903486	0.391877098843898
3.9299999999999127	0.8472091004586586	0.5149406555125119	0.7607916351613655	0.828931776152468	0.6972612313815968	0.3858123648240318
3.939999999999918	0.8486780322608192	0.5146771978659033	0.7618974642148496	0.8169287721623562	0.6870920166672088	0.3797811839746965
3.9499999999999122	0.8501052090919352	0.5145051409992738	0.7630007332315952	0.8046665980482368	0.6768441286850652	0.3737890973140459
3.9599999999999174	0.8514867725931469	0.5144270148393679	0.7640992914233565	0.7921641027023988	0.666532637372241	0.3678416787899869
3.969999999999912	0.8528189958791821	0.5144453008292682	0.7651909478358725	0.7794404348083108	0.6561728698823179	0.3619445223578926
3.979999999999917	0.854098288047267	0.5145624255329904	0.766273473228695	0.7665150074245969	0.645780381940097	0.3561032291059738
3.9899999999999114	0.8553211981852834	0.5147807542195771	0.7673446021789131	0.7534074623656328	0.6353709287088433	0.3503233944569565
3.999999999999913	0.8564844188903389	0.5151025844394024	0.7684020354097925	0.7401376344592124	0.6249604352435384	0.3446105954735869
4.009999999999918	0.8575847893131179	0.5155301396048261	0.7694434423444847	0.7267255157589252	0.614564966601986	0.3389703782943871
4.0199999999999125	0.8586192977473559	0.5160655625865485	0.7704664638844256	0.7131912197861032	0.6042006976842165	0.3334082457249784
4.0299999999999105	0.8595850837871869	0.5167109093362292	0.7714687154106815	0.6995549458734087	0.593883882869303	0.3279296450091866
4.039999999999912	0.8604794400760059	0.5174681425462702	0.7724477900061473	0.6858369436793011	0.5836308255172676	0.32253995580294
4.049999999999917	0.8612998136706833	0.5183391253581673	0.7734012618955602	0.6720574779398004	0.5734578474021795	0.3172444783727823
4.059999999999912	0.8620438070434531	0.5193256151323374	0.7743266900996408	0.6582367935211374	0.5633812581409444	0.3120484220395757
4.06999999999991	0.862709178742733	0.5204292572930549	0.7752216222989937	0.6443950808341021	0.5534173246806053	0.3069568938868276
4.079999999999911	0.8632938437323111	0.521651579262957	0.7760835989023049	0.6305524416681709	0.5435822409051447	0.3019748877518612
4.089999999999913	0.8637958734275003	0.5229939845018576	0.7769101573121128	0.616728855500781	0.5338920974208392	0.2971072735169607
4.099999999999911	0.8642134954461733	0.5244577466649404	0.7776988363802583	0.602944146334495	0.5243628515772454	0.2923587867164993
4.109999999999909	0.8645450930925747	0.5260440038955435	0.778447181043154	0.5892179501122132	0.515010297778973	0.2877340184750488
4.11999999999991	0.8647892045917636	0.5277537532674709	0.7791527471253511	0.575569682758096	0.5058500381414686	0.2832374057905459
